<svg id="Layer_1" data-name="Layer 1" xmlns="http://www.w3.org/2000/svg" viewBox="0 0 249.9 120"><defs><style>.cls-1,.cls-2{fill:#ccc;}.cls-1{fill-rule:evenodd;}</style></defs><title>workicon02</title><path class="cls-1" d="M1032.65,582.77a8.82,8.82,0,1,1-8.82,8.82,8.82,8.82,0,0,1,8.82-8.82Z" transform="translate(-835.76 -480.41)"/><path class="cls-1" d="M989.54,582.77a8.82,8.82,0,1,1-8.83,8.82,8.81,8.81,0,0,1,8.83-8.82Z" transform="translate(-835.76 -480.41)"/><path class="cls-2" d="M1084.17,505.26H1067a1.47,1.47,0,0,0-1.41,1l-5.12,16.08H951.2a1.49,1.49,0,0,0-1.44,1.84l13.43,55.73a1.46,1.46,0,0,0,1.44,1.14h89.31a1.48,1.48,0,0,0,1.44-1.08l18.34-64.9h10.46a1.49,1.49,0,0,0,1.49-1.49v-6.86A1.5,1.5,0,0,0,1084.17,505.26Zm-37.72,67.67h-75.7l-10.18-42.32c33.18,0,64.66,0,97.84,0Q1052.43,551.78,1046.45,572.93Z" transform="translate(-835.76 -480.41)"/><path class="cls-2" d="M892.19,538.6a24.18,24.18,0,1,0,24.16,24.18A24.18,24.18,0,0,0,892.19,538.6Zm0,33.72a9.54,9.54,0,1,1,9.54-9.54A9.54,9.54,0,0,1,892.19,572.32Z" transform="translate(-835.76 -480.41)"/><path class="cls-2" d="M952,516.42h104.68l1.9-6.39c-13.74-22.4-22.3-29.51-41.27-29.54l-49.47-.09c-25.31,0-36.31,6.92-58.38,29.6-32.45,4.13-26.42,4.63-50.68,8.34-8.85,1.35-10.36,3.75-12.85,9.72q-2.65,6.31-5.29,12.64h-1.3a2.64,2.64,0,0,0-1.93.87c-3.16,3.15-1.7,19.59,3.87,19.59h20a31.19,31.19,0,0,1,62.37,0h29.71l-8.57-35.58a7.44,7.44,0,0,1,7.23-9.17Zm-86.65,10-18.19,8.05,2.11-5a17.34,17.34,0,0,1,2.63-4.85c1.68-1.76,5.16-2.35,7.45-2.7l6.38-1Zm122.19-39,25.38,0c4.9,0,9.94.5,14.43,2.6,7.06,3.31,13.5,11.78,18.68,19.92H987.53ZM919.45,510c14.73-14.84,20.48-22.65,44-22.61l17.73,0V510Z" transform="translate(-835.76 -480.41)"/></svg>