<svg id="Layer_1" data-name="Layer 1" xmlns="http://www.w3.org/2000/svg" viewBox="0 0 217.12 125"><defs><style>.cls-1{fill:#ccc;}</style></defs><title>workicon03</title><path class="cls-1" d="M1066.11,535.2H1059v-9.33h-9.33v-9.33h-9.33v-9.33H1031v-5.56h-10.85l-4.74,8.2H951.67l-5.74-14.93,2.65-17h-3.44l-8.07,17h-13l-54.57,50.54h196.58ZM910.27,516.54h125.61v7H902.67Zm135.52,22.18H886.32l7.6-7h151.87Z" transform="translate(-851.43 -477.91)"/><path class="cls-1" d="M851.43,549.77l36.47,53.14h159.68l21-53.14Zm47.17,15.3a4.59,4.59,0,1,1,4.59,4.6A4.59,4.59,0,0,1,898.6,565.07Zm33.76,0a4.59,4.59,0,1,1,4.59,4.6A4.6,4.6,0,0,1,932.36,565.07Zm33.76,0a4.59,4.59,0,1,1,4.59,4.6A4.6,4.6,0,0,1,966.11,565.07Zm33.75,0a4.59,4.59,0,1,1,4.59,4.6A4.6,4.6,0,0,1,999.87,565.07Zm38.35,4.6a4.6,4.6,0,1,1,4.59-4.6A4.6,4.6,0,0,1,1038.22,569.67Z" transform="translate(-851.43 -477.91)"/></svg>