<svg id="Layer_1" data-name="Layer 1" xmlns="http://www.w3.org/2000/svg" viewBox="0 0 190.99 130"><defs><style>.cls-1,.cls-2{fill:#ccc;}.cls-1{fill-rule:evenodd;}</style></defs><title>workicon01</title><polygon class="cls-1" points="0 0 190.99 0 190.99 6.79 190.99 15.27 190.99 130 181.99 130 181.99 15.27 8.99 15.27 8.99 130 0 130 0 15.27 0 6.79 0 0 0 0"/><path class="cls-2" d="M1029.43,528.4a5.08,5.08,0,0,0-5.06-5.07h-2.53a5,5,0,0,0-2.89.91l-15.27-13.15C997.13,505.46,990.3,501,981.36,501H938.74c-8.94,0-15.77,4.45-22.32,10.09l-15.27,13.15a5,5,0,0,0-2.89-.91h-2.53a5.06,5.06,0,0,0-2.06,9.69c-1.75,2.47-1.79,5.53-1.79,8.46v31.11a9.11,9.11,0,0,0,9.09,9.08h118.12a9.11,9.11,0,0,0,9.1-9.08V541.48c0-2.94,0-6-1.78-8.46A5.08,5.08,0,0,0,1029.43,528.4Zm-90.69-18.92h42.62c11.59,0,21.33,11.9,29.45,19H909.29C917.41,521.39,927.14,509.49,938.74,509.49Zm-27,50.39a8.9,8.9,0,1,1,8.89-8.9A8.89,8.89,0,0,1,911.76,559.88Zm96.59,0a8.9,8.9,0,1,1,8.89-8.9A8.9,8.9,0,0,1,1008.34,559.88Z" transform="translate(-863.89 -475.41)"/><path class="cls-2" d="M897,584.52v10.2a10.73,10.73,0,0,0,10.7,10.7h0a10.73,10.73,0,0,0,10.7-10.7v-9.56H901A12.48,12.48,0,0,1,897,584.52Z" transform="translate(-863.89 -475.41)"/><path class="cls-2" d="M1000.31,585.15v9.56a10.71,10.71,0,0,0,21.41,0v-9.83a13,13,0,0,1-2.61.27Z" transform="translate(-863.89 -475.41)"/></svg>